<svg
    xmlns="http://www.w3.org/2000/svg"
    viewBox="0 0 922 922"
    id="vector">
    <path
        id="path"
        d="M 103.32 4 L 705.18 4 C 762.475 4 817.482 26.782 858 67.292 C 898.517 107.802 921.309 162.805 921.32 220.1 L 921.32 823.31 C 921.329 840.805 916.73 857.997 907.987 873.151 C 899.245 888.305 886.664 900.892 871.514 909.642 C 856.365 918.392 839.175 923 821.68 923 L 310.18 923 C 256.139 923 203.038 908.771 156.238 881.748 C 109.439 854.725 70.569 815.85 43.552 769.047 C 16.536 722.244 2.313 669.141 2.32 615.1 L 2.32 105 C 2.32 78.223 12.968 52.516 31.902 33.582 C 50.836 14.648 76.543 4 103.32 4 Z"
        fill="#073000"/>
    <path
        id="path_1"
        d="M 301.51 809.16 L 450.11 809.16 L 450.11 702.11 L 345.94 702.11 C 312.652 702.11 280.694 688.872 257.156 665.334 C 233.618 641.796 220.38 609.838 220.38 576.55 L 220.38 220.85 L 450.11 220.85 L 450.11 113.85 L 113.8 113.85 L 113.8 621.44 C 113.8 725.12 197.84 809.16 301.51 809.16 Z"
        fill="#30ff00"/>
    <path
        id="path_2"
        d="M 702.11 113.8 L 472.85 113.8 L 472.85 809.16 L 579.9 809.16 L 579.9 514.53 L 702.11 514.53 C 720.904 514.53 739.371 509.581 755.647 500.181 C 771.922 490.782 785.438 477.261 794.831 460.982 C 804.224 444.703 809.167 426.234 809.16 407.44 L 809.16 407.44 L 809.16 220.85 L 809.16 220.85 C 809.147 192.478 797.855 165.244 777.788 145.187 C 757.721 125.129 730.482 113.85 702.11 113.85 Z M 655.76 407.44 L 579.9 407.44 L 579.9 220.85 L 655.76 220.85 C 668.048 220.85 679.845 225.737 688.534 234.426 C 697.223 243.115 702.11 254.912 702.11 267.2 L 702.11 361.13 C 702.099 373.411 697.208 385.198 688.52 393.879 C 679.832 402.559 668.041 407.44 655.76 407.44 Z"
        fill="#30ff00"/>
    <path
        id="path_3"
        d="M 702.11 809.16"
        fill="#20ff00"/>
    <path
        id="path_4"
        d="M 701.6 922.94 L 809.16 922.94 L 809.16 724.8 C 809.16 550.36 579.9 514.53 579.9 514.53 C 579.9 514.53 702.11 545.63 702.11 724.8 Z"
        fill="#30ff00"/>
    <path
        id="path_5"
        d="M 659.08 902.96 L 276.92 902.96 C 135.03 902.96 20 787.96 20 646.04 L 20 20.04 L 763.28 20.04 C 800.304 20.04 835.851 34.761 862.035 60.937 C 888.218 87.114 902.949 122.656 902.96 159.68 L 902.96 902.96 L 851.68 902.96"
        fill="#00000000"
        stroke="#30ff00"
        stroke-width="40"
        stroke-linecap="square"
        stroke-linejoin="round"/>
</svg>
